<?xml version="1.0" encoding="UTF-8"?>
<svg width="1200pt" height="1200pt" version="1.1" viewBox="0 0 1200 1200" xmlns="http://www.w3.org/2000/svg">
 <path d="M 600.0 60.0 L 595.3 60.1 L 590.6 60.4 L 585.9 61.0 L 581.2 61.8 L 576.5 62.8 L 571.9 64.0 L 567.3 65.4 L 562.7 67.1 L 558.2 68.9 L 553.7 71.0 L 549.3 73.4 L 544.9 75.9 L 540.6 78.7 L 536.4 81.6 L 532.2 84.8 L 528.1 88.2 L 524.1 91.9 L 520.1 95.7 L 516.3 99.8 L 512.6 104.1 L 508.9 108.6 L 505.4 113.3 L 502.0 118.3 L 498.7 123.4 L 495.5 128.8 L 492.5 134.4 L 489.6 140.3 L 486.9 146.3 L 484.3 152.6 L 481.9 159.1 L 479.6 165.8 L 477.5 172.8 L 475.6 180.0 L 473.8 187.4 L 472.3 195.0 L 471.0 202.9 L 469.9 211.1 L 469.0 219.5 L 468.3 228.1 L 467.9 237.1 L 467.7 246.3 L 467.9 255.8 L 468.3 265.5 L 469.0 275.6 L 470.0 286.1 L 471.3 296.9 L 473.1 308.1 L 475.2 319.7 L 477.8 331.8 L 480.8 344.3 L 484.3 357.5 L 488.5 371.4 L 493.3 386.0 L 498.9 401.6 L 505.5 418.5 L 513.3 436.9 L 522.7 457.6 L 534.5 481.8 L 550.8 513.0 L 592.5 587.0 L 549.3 513.9 L 530.4 484.2 L 515.3 461.8 L 502.1 443.3 L 490.0 427.4 L 478.7 413.3 L 468.0 400.6 L 457.7 389.1 L 447.8 378.6 L 438.2 368.9 L 428.8 360.0 L 419.6 351.8 L 410.7 344.1 L 401.8 337.0 L 393.2 330.4 L 384.6 324.3 L 376.2 318.7 L 367.9 313.4 L 359.8 308.6 L 351.7 304.1 L 343.8 300.0 L 336.0 296.3 L 328.2 292.8 L 320.6 289.7 L 313.1 286.9 L 305.7 284.4 L 298.4 282.2 L 291.3 280.3 L 284.2 278.6 L 277.2 277.2 L 270.4 276.1 L 263.7 275.2 L 257.0 274.5 L 250.5 274.1 L 244.2 273.9 L 237.9 274.0 L 231.8 274.3 L 225.8 274.7 L 220.0 275.4 L 214.2 276.3 L 208.7 277.4 L 203.2 278.7 L 197.9 280.2 L 192.8 281.8 L 187.8 283.7 L 182.9 285.7 L 178.2 287.9 L 173.7 290.2 L 169.3 292.8 L 165.0 295.4 L 161.0 298.3 L 157.1 301.3 L 153.4 304.4 L 149.8 307.7 L 146.5 311.1 L 143.3 314.6 L 140.3 318.3 L 137.4 322.1 L 134.8 326.0 L 132.3 330.0 L 130.1 334.1 L 128.0 338.4 L 126.2 342.7 L 124.5 347.2 L 123.0 351.7 L 121.7 356.3 L 120.7 361.0 L 119.8 365.8 L 119.2 370.7 L 118.8 375.6 L 118.6 380.6 L 118.6 385.7 L 118.8 390.8 L 119.3 395.9 L 119.9 401.1 L 120.8 406.4 L 122.0 411.7 L 123.3 417.0 L 125.0 422.4 L 126.8 427.8 L 128.9 433.2 L 131.2 438.6 L 133.8 444.0 L 136.6 449.4 L 139.7 454.9 L 143.1 460.3 L 146.7 465.7 L 150.5 471.1 L 154.7 476.5 L 159.1 481.9 L 163.8 487.2 L 168.8 492.5 L 174.0 497.7 L 179.6 502.9 L 185.4 508.1 L 191.6 513.2 L 198.1 518.2 L 204.9 523.2 L 212.1 528.1 L 219.6 532.9 L 227.5 537.7 L 235.8 542.3 L 244.5 546.9 L 253.6 551.3 L 263.1 555.7 L 273.2 559.9 L 283.7 564.0 L 294.8 567.9 L 306.6 571.7 L 319.0 575.4 L 332.2 578.9 L 346.2 582.3 L 361.3 585.4 L 377.7 588.3 L 395.5 591.1 L 415.4 593.6 L 438.0 595.8 L 464.9 597.6 L 500.1 599.1 L 585.0 600.0 L 500.1 600.9 L 464.9 602.4 L 438.0 604.2 L 415.4 606.4 L 395.5 608.9 L 377.7 611.7 L 361.3 614.6 L 346.2 617.7 L 332.2 621.1 L 319.0 624.6 L 306.6 628.3 L 294.8 632.1 L 283.7 636.0 L 273.2 640.1 L 263.1 644.3 L 253.6 648.7 L 244.5 653.1 L 235.8 657.7 L 227.5 662.3 L 219.6 667.1 L 212.1 671.9 L 204.9 676.8 L 198.1 681.8 L 191.6 686.8 L 185.4 691.9 L 179.6 697.1 L 174.0 702.3 L 168.8 707.5 L 163.8 712.8 L 159.1 718.1 L 154.7 723.5 L 150.5 728.9 L 146.7 734.3 L 143.1 739.7 L 139.7 745.1 L 136.6 750.6 L 133.8 756.0 L 131.2 761.4 L 128.9 766.8 L 126.8 772.2 L 125.0 777.6 L 123.3 783.0 L 122.0 788.3 L 120.8 793.6 L 119.9 798.9 L 119.3 804.1 L 118.8 809.2 L 118.6 814.3 L 118.6 819.4 L 118.8 824.4 L 119.2 829.3 L 119.8 834.2 L 120.7 839.0 L 121.7 843.7 L 123.0 848.3 L 124.5 852.8 L 126.2 857.3 L 128.0 861.6 L 130.1 865.9 L 132.3 870.0 L 134.8 874.0 L 137.4 877.9 L 140.3 881.7 L 143.3 885.4 L 146.5 888.9 L 149.8 892.3 L 153.4 895.6 L 157.1 898.7 L 161.0 901.7 L 165.0 904.6 L 169.3 907.2 L 173.7 909.8 L 178.2 912.1 L 182.9 914.3 L 187.8 916.3 L 192.8 918.2 L 197.9 919.8 L 203.2 921.3 L 208.7 922.6 L 214.2 923.7 L 220.0 924.6 L 225.8 925.3 L 231.8 925.7 L 237.9 926.0 L 244.2 926.1 L 250.5 925.9 L 257.0 925.5 L 263.7 924.8 L 270.4 923.9 L 277.2 922.8 L 284.2 921.4 L 291.3 919.7 L 298.4 917.8 L 305.7 915.6 L 313.1 913.1 L 320.6 910.3 L 328.2 907.2 L 336.0 903.7 L 343.8 900.0 L 351.7 895.9 L 359.8 891.4 L 367.9 886.6 L 376.2 881.3 L 384.6 875.7 L 393.2 869.6 L 401.8 863.0 L 410.7 855.9 L 419.6 848.2 L 428.8 840.0 L 438.2 831.1 L 447.8 821.4 L 457.7 810.9 L 468.0 799.4 L 478.7 786.7 L 490.0 772.6 L 502.1 756.7 L 515.3 738.2 L 530.4 715.8 L 549.3 686.1 L 592.5 613.0 L 550.8 687.0 L 534.5 718.2 L 522.7 742.4 L 513.3 763.1 L 505.5 781.5 L 498.9 798.4 L 493.3 814.0 L 488.5 828.6 L 484.3 842.5 L 480.8 855.7 L 477.8 868.2 L 475.2 880.3 L 473.1 891.9 L 471.3 903.1 L 470.0 913.9 L 469.0 924.4 L 468.3 934.5 L 467.9 944.2 L 467.7 953.7 L 467.9 962.9 L 468.3 971.9 L 469.0 980.5 L 469.9 988.9 L 471.0 997.1 L 472.3 1005.0 L 473.8 1012.6 L 475.6 1020.0 L 477.5 1027.2 L 479.6 1034.2 L 481.9 1040.9 L 484.3 1047.4 L 486.9 1053.7 L 489.6 1059.7 L 492.5 1065.6 L 495.5 1071.2 L 498.7 1076.6 L 502.0 1081.7 L 505.4 1086.7 L 508.9 1091.4 L 512.6 1095.9 L 516.3 1100.2 L 520.1 1104.3 L 524.1 1108.1 L 528.1 1111.8 L 532.2 1115.2 L 536.4 1118.4 L 540.6 1121.3 L 544.9 1124.1 L 549.3 1126.6 L 553.7 1129.0 L 558.2 1131.1 L 562.7 1132.9 L 567.3 1134.6 L 571.9 1136.0 L 576.5 1137.2 L 581.2 1138.2 L 585.9 1139.0 L 590.6 1139.6 L 595.3 1139.9 L 600.0 1140.0 L 604.7 1139.9 L 609.4 1139.6 L 614.1 1139.0 L 618.8 1138.2 L 623.5 1137.2 L 628.1 1136.0 L 632.7 1134.6 L 637.3 1132.9 L 641.8 1131.1 L 646.3 1129.0 L 650.7 1126.6 L 655.1 1124.1 L 659.4 1121.3 L 663.6 1118.4 L 667.8 1115.2 L 671.9 1111.8 L 675.9 1108.1 L 679.9 1104.3 L 683.7 1100.2 L 687.4 1095.9 L 691.1 1091.4 L 694.6 1086.7 L 698.0 1081.7 L 701.3 1076.6 L 704.5 1071.2 L 707.5 1065.6 L 710.4 1059.7 L 713.1 1053.7 L 715.7 1047.4 L 718.1 1040.9 L 720.4 1034.2 L 722.5 1027.2 L 724.4 1020.0 L 726.2 1012.6 L 727.7 1005.0 L 729.0 997.1 L 730.1 988.9 L 731.0 980.5 L 731.7 971.9 L 732.1 962.9 L 732.3 953.7 L 732.1 944.2 L 731.7 934.5 L 731.0 924.4 L 730.0 913.9 L 728.7 903.1 L 726.9 891.9 L 724.8 880.3 L 722.2 868.2 L 719.2 855.7 L 715.7 842.5 L 711.5 828.6 L 706.7 814.0 L 701.1 798.4 L 694.5 781.5 L 686.7 763.1 L 677.3 742.4 L 665.5 718.2 L 649.2 687.0 L 607.5 613.0 L 650.7 686.1 L 669.6 715.8 L 684.7 738.2 L 697.9 756.7 L 710.0 772.6 L 721.3 786.7 L 732.0 799.4 L 742.3 810.9 L 752.2 821.4 L 761.8 831.1 L 771.2 840.0 L 780.4 848.2 L 789.3 855.9 L 798.2 863.0 L 806.8 869.6 L 815.4 875.7 L 823.8 881.3 L 832.1 886.6 L 840.2 891.4 L 848.3 895.9 L 856.2 900.0 L 864.0 903.7 L 871.8 907.2 L 879.4 910.3 L 886.9 913.1 L 894.3 915.6 L 901.6 917.8 L 908.7 919.7 L 915.8 921.4 L 922.8 922.8 L 929.6 923.9 L 936.3 924.8 L 943.0 925.5 L 949.5 925.9 L 955.8 926.1 L 962.1 926.0 L 968.2 925.7 L 974.2 925.3 L 980.0 924.6 L 985.8 923.7 L 991.3 922.6 L 996.8 921.3 L 1002.1 919.8 L 1007.2 918.2 L 1012.2 916.3 L 1017.1 914.3 L 1021.8 912.1 L 1026.3 909.8 L 1030.7 907.2 L 1035.0 904.6 L 1039.0 901.7 L 1042.9 898.7 L 1046.6 895.6 L 1050.2 892.3 L 1053.5 888.9 L 1056.7 885.4 L 1059.7 881.7 L 1062.6 877.9 L 1065.2 874.0 L 1067.7 870.0 L 1069.9 865.9 L 1072.0 861.6 L 1073.8 857.3 L 1075.5 852.8 L 1077.0 848.3 L 1078.3 843.7 L 1079.3 839.0 L 1080.2 834.2 L 1080.8 829.3 L 1081.2 824.4 L 1081.4 819.4 L 1081.4 814.3 L 1081.2 809.2 L 1080.7 804.1 L 1080.1 798.9 L 1079.2 793.6 L 1078.0 788.3 L 1076.7 783.0 L 1075.0 777.6 L 1073.2 772.2 L 1071.1 766.8 L 1068.8 761.4 L 1066.2 756.0 L 1063.4 750.6 L 1060.3 745.1 L 1056.9 739.7 L 1053.3 734.3 L 1049.5 728.9 L 1045.3 723.5 L 1040.9 718.1 L 1036.2 712.8 L 1031.2 707.5 L 1026.0 702.3 L 1020.4 697.1 L 1014.6 691.9 L 1008.4 686.8 L 1001.9 681.8 L 995.1 676.8 L 987.9 671.9 L 980.4 667.1 L 972.5 662.3 L 964.2 657.7 L 955.5 653.1 L 946.4 648.7 L 936.9 644.3 L 926.8 640.1 L 916.3 636.0 L 905.2 632.1 L 893.4 628.3 L 881.0 624.6 L 867.8 621.1 L 853.8 617.7 L 838.7 614.6 L 822.3 611.7 L 804.5 608.9 L 784.6 606.4 L 762.0 604.2 L 735.1 602.4 L 699.9 600.9 L 615.0 600.0 L 699.9 599.1 L 735.1 597.6 L 762.0 595.8 L 784.6 593.6 L 804.5 591.1 L 822.3 588.3 L 838.7 585.4 L 853.8 582.3 L 867.8 578.9 L 881.0 575.4 L 893.4 571.7 L 905.2 567.9 L 916.3 564.0 L 926.8 559.9 L 936.9 555.7 L 946.4 551.3 L 955.5 546.9 L 964.2 542.3 L 972.5 537.7 L 980.4 532.9 L 987.9 528.1 L 995.1 523.2 L 1001.9 518.2 L 1008.4 513.2 L 1014.6 508.1 L 1020.4 502.9 L 1026.0 497.7 L 1031.2 492.5 L 1036.2 487.2 L 1040.9 481.9 L 1045.3 476.5 L 1049.5 471.1 L 1053.3 465.7 L 1056.9 460.3 L 1060.3 454.9 L 1063.4 449.4 L 1066.2 444.0 L 1068.8 438.6 L 1071.1 433.2 L 1073.2 427.8 L 1075.0 422.4 L 1076.7 417.0 L 1078.0 411.7 L 1079.2 406.4 L 1080.1 401.1 L 1080.7 395.9 L 1081.2 390.8 L 1081.4 385.7 L 1081.4 380.6 L 1081.2 375.6 L 1080.8 370.7 L 1080.2 365.8 L 1079.3 361.0 L 1078.3 356.3 L 1077.0 351.7 L 1075.5 347.2 L 1073.8 342.7 L 1072.0 338.4 L 1069.9 334.1 L 1067.7 330.0 L 1065.2 326.0 L 1062.6 322.1 L 1059.7 318.3 L 1056.7 314.6 L 1053.5 311.1 L 1050.2 307.7 L 1046.6 304.4 L 1042.9 301.3 L 1039.0 298.3 L 1035.0 295.4 L 1030.7 292.8 L 1026.3 290.2 L 1021.8 287.9 L 1017.1 285.7 L 1012.2 283.7 L 1007.2 281.8 L 1002.1 280.2 L 996.8 278.7 L 991.3 277.4 L 985.8 276.3 L 980.0 275.4 L 974.2 274.7 L 968.2 274.3 L 962.1 274.0 L 955.8 273.9 L 949.5 274.1 L 943.0 274.5 L 936.3 275.2 L 929.6 276.1 L 922.8 277.2 L 915.8 278.6 L 908.7 280.3 L 901.6 282.2 L 894.3 284.4 L 886.9 286.9 L 879.4 289.7 L 871.8 292.8 L 864.0 296.3 L 856.2 300.0 L 848.3 304.1 L 840.2 308.6 L 832.1 313.4 L 823.8 318.7 L 815.4 324.3 L 806.8 330.4 L 798.2 337.0 L 789.3 344.1 L 780.4 351.8 L 771.2 360.0 L 761.8 368.9 L 752.2 378.6 L 742.3 389.1 L 732.0 400.6 L 721.3 413.3 L 710.0 427.4 L 697.9 443.3 L 684.7 461.8 L 669.6 484.2 L 650.7 513.9 L 607.5 587.0 L 649.2 513.0 L 665.5 481.8 L 677.3 457.6 L 686.7 436.9 L 694.5 418.5 L 701.1 401.6 L 706.7 386.0 L 711.5 371.4 L 715.7 357.5 L 719.2 344.3 L 722.2 331.8 L 724.8 319.7 L 726.9 308.1 L 728.7 296.9 L 730.0 286.1 L 731.0 275.6 L 731.7 265.5 L 732.1 255.8 L 732.3 246.3 L 732.1 237.1 L 731.7 228.1 L 731.0 219.5 L 730.1 211.1 L 729.0 202.9 L 727.7 195.0 L 726.2 187.4 L 724.4 180.0 L 722.5 172.8 L 720.4 165.8 L 718.1 159.1 L 715.7 152.6 L 713.1 146.3 L 710.4 140.3 L 707.5 134.4 L 704.5 128.8 L 701.3 123.4 L 698.0 118.3 L 694.6 113.3 L 691.1 108.6 L 687.4 104.1 L 683.7 99.8 L 679.9 95.7 L 675.9 91.9 L 671.9 88.2 L 667.8 84.8 L 663.6 81.6 L 659.4 78.7 L 655.1 75.9 L 650.7 73.4 L 646.3 71.0 L 641.8 68.9 L 637.3 67.1 L 632.7 65.4 L 628.1 64.0 L 623.5 62.8 L 618.8 61.8 L 614.1 61.0 L 609.4 60.4 L 604.7 60.1 Z" fill="#FFFFFF"/>
</svg>